<svg xmlns="http://www.w3.org/2000/svg" width="64" height="64" viewBox="0 0 64 64">
  <rect x="4" y="4" width="56" height="56" rx="14" fill="#ffffff" stroke="rgba(15, 23, 42, 0.12)"/>

  <g fill="none" stroke="#2c7a6b" stroke-width="1.6" stroke-linecap="round" stroke-linejoin="round">
    <path d="M32 10c-2 5-2 10 0 14 2 4 6 7 10 9"/>
    <path d="M32 14c-5 0-9 3-10 7 5 1 9-1 10-5z"/>
    <path d="M34 18c5 0 9 3 10 7-5 1-9-1-10-5z"/>
    <path d="M30 19c-3 1-6 4-6 7 3 0 5-1 6-3z"/>
  </g>

  <text
    x="32"
    y="41"
    text-anchor="middle"
    font-family="ui-serif, Georgia, Cambria, 'Times New Roman', Times, serif"
    font-size="26"
    font-weight="900"
    font-style="italic"
    fill="#254b59"
    letter-spacing="-0.02em"
  >
    360
  </text>
  <text
    x="32"
    y="52"
    text-anchor="middle"
    font-family="ui-serif, Georgia, Cambria, 'Times New Roman', Times, serif"
    font-size="8"
    font-weight="900"
    fill="#2c7a6b"
    letter-spacing="0.26em"
  >
    LAKEFRONT
  </text>
</svg>
